<svg viewBox="0 0 71 71" xmlns="http://www.w3.org/2000/svg"><g clip-path="url(#clip0)"><path d="M47.7 33l11.7-11.7c.7-.7.8-1.8.2-2.6L45.8.8c-.7-.9-2-1-2.9-.3L31.3 10.8c-.8.7-1.9.7-2.7 0L17.1.5c-.9-.8-2.2-.6-2.9.3L.4 18.7c-.6.8-.5 1.9.2 2.6l28 28c.8.8 2 .8 2.8 0l5-5" fill="#FF005F"/><path d="M35.8 49.5V35.7c0-1.7 1.4-3.1 3.1-3.1h14.4" fill="#fff"/><path d="M69.2 38H41.6v31h27.6V38z" fill="#E5E1C1" stroke="#222" stroke-width="3" stroke-miterlimit="10" stroke-linecap="round" stroke-linejoin="round"/><path d="M48.5 51.8h13.7M48.5 44.9h13.7M48.5 58.7h6.9" stroke="#222" stroke-width="3" stroke-miterlimit="10" stroke-linecap="round" stroke-linejoin="round"/></g><defs><clipPath id="clip0"><rect width="70.6" height="70.5" /></clipPath></defs></svg>