<svg viewBox="0 0 73 73" fill="none" xmlns="http://www.w3.org/2000/svg"><g clip-path="url(#clip0)" stroke-miterlimit="10" stroke-linecap="round" stroke-linejoin="round"><path d="M61.3 17.2H10.9L1.5 51.9h69.3l-9.5-34.7zM67.6 61.3h-63l-3.1-9.4h69.3l-3.2 9.4z" stroke="#222" stroke-width="3"/><path d="M17.2 23.5L22 4.6h7.8" stroke="#fff" stroke-width="7"/><path d="M17.2 23.5L22 4.6h7.8" stroke="#FFA800" stroke-width="3"/><path d="M53.5 45.6H18.8l4.7-22.1h25.2l4.8 22.1z" fill="#FF005F" stroke="#FF005F" stroke-width="3"/><path d="M36.1 61.3v9.5" stroke="#222" stroke-width="3"/><path d="M44 7.8H29.8V1.5H44l1.6 3.1L44 7.8z" fill="#00A1B6" stroke="#222" stroke-width="3"/><path d="M28.3 29.8h7.8M42.4 29.8H44M29.8 36.1h-3.1M45.6 36.1h-9.5" stroke="#fff" stroke-width="3"/></g><defs><clipPath id="clip0"><rect width="72.3" height="72.3" fill="#fff"/></clipPath></defs></svg>