<svg xmlns="http://www.w3.org/2000/svg" viewBox="0 0 501 501">
  <path fill="#ffffff" d="M0,0H501V501H0ZM450.59,497.92,424,427a6.46,6.46,0,0,0-3.78-3.79l-53.12-20.1-4.93-19.72a6.49,6.49,0,0,0-10.68-3.23l-72.6,66.18-20.85-49,100.33-41.8a6.51,6.51,0,0,0,4-6V318.07l31.86-15.94a6.5,6.5,0,0,0,3.59-5.81V252a6.5,6.5,0,0,0-6.5-6.5h-29v-9.7l6.38-12.8H409a6.5,6.5,0,0,0,3.23-12.14l-59.8-34.17L326.62,90.57a6.5,6.5,0,0,0-8.09-4.36l-.41.14-68.64,25.74L180.85,86.35a6.52,6.52,0,0,0-8.38,3.84c-.05.13-.09.25-.13.38L146.5,176.73,86.7,210.9A6.5,6.5,0,0,0,89.92,223h40.31l6.38,12.76v9.7h-29a6.5,6.5,0,0,0-6.5,6.5v44.32a6.49,6.49,0,0,0,3.6,5.81L136.57,318v31.44a6.51,6.51,0,0,0,4,6L241,397.35l-18,44.19-75.84-61.62a6.5,6.5,0,0,0-10.35,3.26L131,403.41l-52.32,19.8A6.51,6.51,0,0,0,75,427L48.38,497.92A6.35,6.35,0,0,0,48,501H61.11l25-66.68L126.63,419l-7.5,26.23a6.5,6.5,0,0,0,4.46,8,6.34,6.34,0,0,0,1.79.25H162l-7.6,45.61a6.51,6.51,0,0,0,0,1.87h12.9l8.82-52.92a6.51,6.51,0,0,0-6.42-7.56H134l12.66-44.3,74.92,60.88.12.1,29.39,23.87a6.66,6.66,0,0,0,.83.68L275.62,501h15.77a6.5,6.5,0,0,0-2.35-5.84l-23.48-19.08,86.63-79,13.07,52.28H338.13a6.51,6.51,0,0,0-6.51,6.49,6.86,6.86,0,0,0,.13,1.28L340.52,501h12.92a6.53,6.53,0,0,0-.07-2.07l-7.31-36.55h27.52a6.5,6.5,0,0,0,6.5-6.5,6,6,0,0,0-.19-1.58l-9-35.84,41.92,15.86,25,66.68H451A6.61,6.61,0,0,0,450.59,497.92Zm-314-194.39L114.15,292.3V258.5h22.46Zm248.2-45v33.8l-22.45,11.23v-45ZM182.8,101l64.4,24.15a6.54,6.54,0,0,0,4.57,0L316.17,101l22.09,73.61H160.71ZM114.4,210l39.3-22.46H345.27L384.57,210Zm239.8,13-28.95,58H287.63l-33.55-33.6a6.49,6.49,0,0,0-9.18,0h0L211.33,281H173.72l-29-57.92ZM149.61,345.17V261.8l14.28,28.56a6.49,6.49,0,0,0,5.81,3.6H214a6.5,6.5,0,0,0,4.59-1.91l30.86-30.86,30.87,30.86a6.5,6.5,0,0,0,4.59,1.91h44.32a6.49,6.49,0,0,0,5.82-3.6l14.28-28.56v83.37l-99.88,41.62ZM255.35,467.79,233.6,450.11l16-39.36,19.08,44.87Zm18.65-121a6.5,6.5,0,0,0,4.11-12.33l-26.59-8.87a6.56,6.56,0,0,0-4.11,0l-26.6,8.87A6.51,6.51,0,1,0,225,346.81l24.53-8.18Z" />
</svg>
